<?xml version="1.0" encoding="UTF-8"?>
<svg xmlns="http://www.w3.org/2000/svg" viewBox="0 0 1074 1074" width="1074" height="1074">
<path d="M0.25 0.25C358.08 0.25 715.92 0.25 1073.75 0.25C1073.75 358.08 1073.75 715.92 1073.75 1073.75C715.92 1073.75 358.08 1073.75 0.25 1073.75C0.25 715.92 0.25 358.08 0.25 0.25ZM436.5 140.23C412.05 144.26 395.87 164.75 386.61 186.16C377.28 207.75 370.9 230.69 364.72 253.33C360.13 270.16 355.1 286.84 350.07 303.54C347.06 313.56 344.37 323.67 341.24 333.65C340.56 335.82 339.43 342.39 338.33 343.83C336.94 345.64 332.65 345.69 330.52 346.14C323.39 347.64 316.23 349.06 309.09 350.54C286.51 355.18 263.58 360.68 242.34 369.82C237.49 371.9 232.53 373.81 227.97 376.47C219.82 381.21 207.47 388.93 207.12 399.5C206.62 414.9 228.42 425.18 240.35 430.17C278.09 445.95 321.11 454.24 361.5 459.95C435.91 470.46 511.39 473.77 586.5 471.37C641.22 469.62 695.76 465.8 749.74 456.39C769.4 452.95 789.06 449.23 808.29 443.7C819.58 440.45 830.71 436.4 841.68 432.21C852.93 427.91 869.69 420.19 876.4 409.88C885.67 395.62 873.82 384.5 862 377.49C849.97 370.36 836.15 365.55 822.79 361.62C808.09 357.29 793.49 353.26 778.46 350.17C771.48 348.73 764.48 347.4 757.52 345.9C755.13 345.39 750.65 345.34 749.04 343.42C747.62 341.73 745.66 332.33 744.81 329.61C741.41 318.62 738.19 307.57 734.85 296.56C726.44 268.89 719.32 240.78 710.24 213.33C704.43 195.76 698.48 177.41 686.85 162.68C683.1 157.93 678.5 153.45 673.55 149.97C668.96 146.73 663.69 144 658.38 142.17C629.15 132.09 601.26 154.55 575.42 164.88C561.56 170.43 547.39 172.83 532.5 170.82C499.43 166.35 470.98 134.55 436.5 140.23ZM604.5 179.43C604.39 179.93 604.61 180.49 604.43 180.97C603.83 182.62 600.03 185.84 598.68 187.18C593.31 192.48 587.41 197.41 581.14 201.61C571.14 208.32 559.57 214.23 547.47 215.75C532.48 217.64 517.54 213.73 503.85 207.86C492.71 203.08 482.03 197.32 470.87 192.59C461.93 188.81 452.4 185.72 442.7 188.29C428.7 192 419.8 206.13 413.76 218.27C408.14 229.56 404.25 241.54 399.71 253.27C393.01 270.6 386.66 288.07 379.5 305.23C378.88 299.86 381.42 293.74 382.74 288.41C385.65 276.67 388.58 264.95 391.68 253.26C396.85 233.75 402.11 208.92 411.79 191.29C416.7 182.35 423.23 173.59 432.8 169.34C444.07 164.34 455.84 167.2 466.68 171.8C482.94 178.69 498.02 187.92 514.79 193.64C533.5 200.03 553.38 200.67 572.29 194.73C583.75 191.13 594.01 185.11 604.5 179.43ZM370.5 328.75C379.94 331.29 389.22 334.45 398.75 336.65C418.18 341.14 437.76 345.07 457.53 347.77C509 354.82 561.85 354.96 613.5 349.83C637.32 347.46 661.02 343.1 684.32 337.71C691.74 335.99 699.14 333.99 706.44 331.84C710.17 330.74 713.65 329.24 717.5 329.09C721.11 341.61 725.05 354.07 728.98 366.5C729.93 369.52 730.88 372.55 731.86 375.57C732.15 376.46 733.05 378.26 732.56 379.21C731.97 380.35 729.65 380.71 728.54 381.1C724.84 382.39 721.12 383.6 717.39 384.81C701.74 389.87 685.71 394 669.59 397.27C648.15 401.62 626.31 404.49 604.5 406.16C555.31 409.92 506.43 409.59 457.46 403.28C430.96 399.86 404.86 394.89 379.19 387.41C373.03 385.62 366.89 383.78 360.83 381.62C359.53 381.15 355.91 380.5 355.21 379.22C354.55 378.01 355.41 376.5 355.79 375.36C356.79 372.33 357.76 369.3 358.68 366.24C361.36 357.25 363.93 348.24 366.72 339.29C367.85 335.7 368.39 331.8 370.5 328.75ZM405.77 485.45C392.58 486.83 379.76 489.56 367.11 493.56C356.19 497.01 345.72 501.44 334.49 503.93C328.53 505.26 322.65 506.02 316.55 506.43C312.85 506.67 308.13 506.95 305.61 510.11C303.7 512.52 303.91 515.6 303.85 518.5C303.74 524.52 302.3 536.7 307.72 540.79C313.84 545.41 321.38 541.82 325.51 550.97C327.42 555.19 327.48 560 328.12 564.5C329.04 570.88 330.3 577.22 332.19 583.39C340.68 611.04 359.48 634.74 386.67 645.8C430.4 663.58 484.24 646.45 506.91 604.39C512.76 593.55 517.04 581.67 518.71 569.44C519.48 563.82 519.05 551.18 521.47 546.95C525.89 539.25 541.77 537.52 549.5 539.03C554.45 540 561.33 541.7 564.48 546.02C567.49 550.16 566.7 555.69 567.08 560.5C567.57 566.8 568.78 573.18 570.3 579.31C575.18 598.91 586.1 617.8 601.62 630.91C643.7 666.45 711.53 657.69 741.97 611.42C749.09 600.59 753.99 588.08 756.79 575.44C758.41 568.11 758.45 558.32 761.17 551.65C762.43 548.55 764.72 545.78 767.8 544.34C774.36 541.27 781.6 542.78 782.72 533.45C783.31 528.57 782.96 523.41 782.9 518.5C782.86 515.72 783.09 512.53 781.36 510.15C777.85 505.31 769.63 506.3 764.51 505.74C751.74 504.32 739.45 500.59 727.44 496.14C693.12 483.39 653.75 480.19 618.73 492.29C608 496 597.4 500.9 588.42 507.95C585.46 510.28 582.62 512.8 580.13 515.64C578.94 517 577.57 519.6 575.91 520.37C574.26 521.13 571.92 519.77 570.32 519.25C566.43 517.99 562.5 516.9 558.49 516.11C548.36 514.12 537.65 514.11 527.53 516.15C523.85 516.89 520.2 518.01 516.65 519.22C515.3 519.68 513.16 520.96 511.71 520.6C509.91 520.16 506.03 514.6 504.44 513.06C499.09 507.88 493.12 503.49 486.58 499.91C462.47 486.72 432.88 482.62 405.77 485.45ZM411.51 513.5C408.38 517.66 402.21 519.49 397.77 522.29C389.81 527.31 381.97 533.2 376.13 540.68C370.98 547.26 367.12 554.85 364.18 562.64C363.17 565.32 361.64 572.47 359.74 574.26C359.41 574.57 358.87 574.57 358.5 574.84C354.85 569.83 355.19 561.48 355.75 555.5C357.59 535.93 370.33 519.34 389.34 513.74C395.97 511.79 405.31 509.86 411.51 513.5ZM651.13 513.5C649.91 515.54 651.84 513.26 650.49 515.01C648.95 517.01 640.38 520.57 637.68 522.18C630.37 526.55 623.42 531.83 617.82 538.3C611.97 545.06 607.74 552.64 604.46 560.94C603.22 564.06 601.5 572.03 599.71 574.25C599.4 574.63 598.84 574.71 598.5 575.04C594.26 569.55 595.02 560.07 595.87 553.5C598.33 534.38 611.54 518.76 630.21 513.63C636.74 511.83 644.83 510.54 651.13 513.5ZM748.84 633.81C744.59 636.46 740.07 642 735.94 645.46C728.19 651.94 719.37 657.53 710.1 661.56C667.23 680.21 614.26 670.61 581.49 637.01C566.58 621.72 557.4 603 551.96 582.52C550.72 577.85 550.22 572.77 548.19 568.36C547.34 566.49 545.93 563.94 543.52 564.03C541.28 564.11 539.89 566.78 539.03 568.53C536.76 573.15 536.19 578.52 534.83 583.45C529.22 603.67 520.06 622.59 505.09 637.58C461.38 681.35 388.96 681.93 344.11 639.39C332.9 628.76 323.83 614.68 318.12 600.35C316.9 597.29 316.06 594.07 314.87 591C314.32 585.1 312.25 579.27 311.32 573.37C310.8 570.08 311 565.93 309.55 562.87C308.47 560.58 303.94 558.71 301.52 559.25C299.55 559.7 296.08 566.56 294.99 568.47C289.13 578.7 283.23 589.81 281.03 601.5C280.05 606.73 279.26 612.16 279.28 617.5C279.3 623.19 280.28 628.86 279.05 634.5C277.67 640.82 274.31 646.57 272.19 652.64C269.95 659.04 268.94 665.73 268.87 672.5C268.81 679.97 269.89 687.23 272.22 694.33C274.13 700.14 277.35 705.86 278.55 711.86C280.26 720.46 277.76 729.5 279.41 738.2C281.29 748.08 287.99 755.86 293.63 763.84C295.73 766.82 298.03 769.73 299.39 773.16C301.07 777.4 301.39 782.04 302.11 786.5C303 792.01 304.44 797.44 307.11 802.38C314.58 816.21 328.85 823.99 339.06 835.42C348.09 845.52 351.74 859.03 361.91 868.58C371.7 877.78 386.15 879.21 397.27 886.24C402.55 889.58 406.59 894.18 411.12 898.39C416.98 903.84 423.62 909.05 430.7 912.8C441.36 918.43 453.53 922.47 465.54 923.69C473.44 924.49 481.53 923.9 489.38 925.3C496.84 926.63 503.7 930.16 510.82 932.61C524.48 937.3 537.95 940.37 552.5 939.01C567.24 937.64 577.35 929.99 590.74 926.33C599.77 923.86 609.27 925.51 618.5 924.95C630.71 924.21 642.01 919.96 652.7 914.2C657.01 911.88 661.91 909.23 665.09 905.5C660.61 899.14 656.22 892.98 654.4 885.21C651.12 871.15 654.56 854.1 666.56 845.03C673.03 840.14 680.52 838.73 688.1 836.5C685.34 829.93 682.71 823.64 682.5 816.23C681.77 791.5 698.8 771.55 724.44 773.4C730.27 773.81 735.27 775.5 740.5 778C743.97 770.74 744.59 762.78 749.55 756.07C758.81 743.59 775.65 739.05 790.35 742.27C795.11 743.31 799.35 745.65 803.5 748.09C803.85 747.5 804.46 747.09 804.77 746.48C805.75 744.5 805.84 741.69 806.26 739.56C807.43 733.67 808.02 727.67 809.42 721.84C810.46 717.52 812.28 713.44 813.66 709.23C816.28 701.23 818.62 692.94 819.11 684.5C819.68 674.53 819.18 664.44 816.67 654.74C814.82 647.56 811.57 640.76 810.09 633.48C808.16 623.95 809.31 614.12 807.92 604.5C806.01 591.33 799.91 579.61 793.04 568.42C791.89 566.54 788.88 560.27 787.13 559.38C785.93 558.78 784.89 558.96 783.62 559.21C781.99 559.53 778.74 560.77 777.72 562.16C775.98 564.53 775.58 573.19 774.97 576.5C772.35 590.64 768.03 603.79 760.74 616.25C758.93 619.36 757.04 622.46 754.93 625.38C752.92 628.16 750.24 630.76 748.84 633.81ZM728.56 810.25C723.68 810.8 720.06 817.64 718.11 821.47C717.41 822.86 715.81 825.42 716.53 827.03C717.2 828.52 719.51 829.09 720.89 829.56C725.37 831.09 730.77 832.44 735.44 830.88C738.6 829.81 738.81 827.47 739.12 824.5C739.34 822.45 739.59 820.57 739.02 818.55C737.95 814.72 732.74 809.78 728.56 810.25ZM791.62 816.22C789.22 816.65 787.87 819.45 785.43 819.83C783.62 820.11 782.23 819.24 780.48 819.13C777.11 818.91 773.68 820.78 773.59 824.5C773.57 825.52 773.81 826.4 774.2 827.33C775.49 830.39 779.47 830.66 781.43 833.09C783.66 835.88 782.77 841.6 786.78 842.57C796.3 844.87 807.62 827.19 801.77 819.72C800.22 817.74 797.89 817.24 795.58 816.71C794.27 816.42 792.98 815.99 791.62 816.22ZM290.57 838.18C287.02 838.82 280.15 842.74 278.56 846.05C277.45 848.33 277.4 850.89 276.72 853.3C276.31 854.75 275.53 856.1 274.96 857.5C272.04 864.69 269.63 872.34 279.56 874.87C286.84 876.72 287.23 872 292.56 871.21C295.34 870.8 297.72 872.56 300.5 872.21C303.4 871.84 304.97 869.21 306.71 867.22C309.28 864.3 313.48 861.81 313.73 857.46C313.85 855.38 312.97 853.38 311.35 852.08C309.23 850.38 306.31 850.06 304.13 848.38C299.42 844.75 297.75 836.9 290.57 838.18ZM734.74 864.33C731.96 865.03 728.82 866.24 727.26 868.77C725.25 872.04 725.83 876.47 724.53 880.06C722.25 886.38 717.67 891.73 715.67 898.24C714.44 902.29 716.54 906.41 720.81 907.59C725.91 908.99 731.23 904.82 736.01 903.5C741.32 902.05 752.54 902.78 755.9 898.41C758.75 894.7 762.53 885.6 761.49 880.99C760.56 876.84 756.59 875.35 753.59 872.94C747.01 867.64 744.58 861.87 734.74 864.33ZM329.74 894.36C325.58 895.26 323.65 901.11 321.7 904.43C320.84 905.9 319.91 907.43 320.46 909.18C320.96 910.8 323.01 911.58 324.4 912.17C328.68 913.97 334.51 915.24 338.97 913.46C343.85 911.51 346.47 905.4 343.74 900.76C341.14 896.33 334.74 893.27 329.74 894.36Z" fill="#fdfbf6" fill-rule="evenodd" stroke="#fdfbf6" stroke-width="0.25" stroke-linejoin="round"/>
<path d="M436.5 140.23C470.98 134.55 499.43 166.35 532.5 170.82C547.39 172.83 561.56 170.43 575.42 164.88C601.26 154.55 629.15 132.09 658.38 142.17C663.69 144 668.96 146.73 673.55 149.97C678.5 153.45 683.1 157.93 686.85 162.68C698.48 177.41 704.43 195.76 710.24 213.33C719.32 240.78 726.44 268.89 734.85 296.56C738.19 307.57 741.41 318.62 744.81 329.61C745.66 332.33 747.62 341.73 749.04 343.42C750.65 345.34 755.13 345.39 757.52 345.9C764.48 347.4 771.48 348.73 778.46 350.17C793.49 353.26 808.09 357.29 822.79 361.62C836.15 365.55 849.97 370.36 862 377.49C873.82 384.5 885.67 395.62 876.4 409.88C869.69 420.19 852.93 427.91 841.68 432.21C830.71 436.4 819.58 440.45 808.29 443.7C789.06 449.23 769.4 452.95 749.74 456.39C695.76 465.8 641.22 469.62 586.5 471.37C511.39 473.77 435.91 470.46 361.5 459.95C321.11 454.24 278.09 445.95 240.35 430.17C228.42 425.18 206.62 414.9 207.12 399.5C207.47 388.93 219.82 381.21 227.97 376.47C232.53 373.81 237.49 371.9 242.34 369.82C263.58 360.68 286.51 355.18 309.09 350.54C316.23 349.06 323.39 347.64 330.52 346.14C332.65 345.69 336.94 345.64 338.33 343.83C339.43 342.39 340.56 335.82 341.24 333.65C344.37 323.67 347.06 313.56 350.07 303.54C355.1 286.84 360.13 270.16 364.72 253.33C370.9 230.69 377.28 207.75 386.61 186.16C395.87 164.75 412.05 144.26 436.5 140.23ZM604.5 179.43C594.01 185.11 583.75 191.13 572.29 194.73C553.38 200.67 533.5 200.03 514.79 193.64C498.02 187.92 482.94 178.69 466.68 171.8C455.84 167.2 444.07 164.34 432.8 169.34C423.23 173.59 416.7 182.35 411.79 191.29C402.11 208.92 396.85 233.75 391.68 253.26C388.58 264.95 385.65 276.67 382.74 288.41C381.42 293.74 378.88 299.86 379.5 305.23C386.66 288.07 393.01 270.6 399.71 253.27C404.25 241.54 408.14 229.56 413.76 218.27C419.8 206.13 428.7 192 442.7 188.29C452.4 185.72 461.93 188.81 470.87 192.59C482.03 197.32 492.71 203.08 503.85 207.86C517.54 213.73 532.48 217.64 547.47 215.75C559.57 214.23 571.14 208.32 581.14 201.61C587.41 197.41 593.31 192.48 598.68 187.18C600.03 185.84 603.83 182.62 604.43 180.97C604.61 180.49 604.39 179.93 604.5 179.43ZM370.5 328.75C368.39 331.8 367.85 335.7 366.72 339.29C363.93 348.24 361.36 357.25 358.68 366.24C357.76 369.3 356.79 372.33 355.79 375.36C355.41 376.5 354.55 378.01 355.21 379.22C355.91 380.5 359.53 381.15 360.83 381.62C366.89 383.78 373.03 385.62 379.19 387.41C404.86 394.89 430.96 399.86 457.46 403.28C506.43 409.59 555.31 409.92 604.5 406.16C626.31 404.49 648.15 401.62 669.59 397.27C685.71 394 701.74 389.87 717.39 384.81C721.12 383.6 724.84 382.39 728.54 381.1C729.65 380.71 731.97 380.35 732.56 379.21C733.05 378.26 732.15 376.46 731.86 375.57C730.88 372.55 729.93 369.52 728.98 366.5C725.05 354.07 721.11 341.61 717.5 329.09C713.65 329.24 710.17 330.74 706.44 331.84C699.14 333.99 691.74 335.99 684.32 337.71C661.02 343.1 637.32 347.46 613.5 349.83C561.85 354.96 509 354.82 457.53 347.77C437.76 345.07 418.18 341.14 398.75 336.65C389.22 334.45 379.94 331.29 370.5 328.75ZM405.77 485.45C432.88 482.62 462.47 486.72 486.58 499.91C493.12 503.49 499.09 507.88 504.44 513.06C506.03 514.6 509.91 520.16 511.71 520.6C513.16 520.96 515.3 519.68 516.65 519.22C520.2 518.01 523.85 516.89 527.53 516.15C537.65 514.11 548.36 514.12 558.49 516.11C562.5 516.9 566.43 517.99 570.32 519.25C571.92 519.77 574.26 521.13 575.91 520.37C577.57 519.6 578.94 517 580.13 515.64C582.62 512.8 585.46 510.28 588.42 507.95C597.4 500.9 608 496 618.73 492.29C653.75 480.19 693.12 483.39 727.44 496.14C739.45 500.59 751.74 504.32 764.51 505.74C769.63 506.3 777.85 505.31 781.36 510.15C783.09 512.53 782.86 515.72 782.9 518.5C782.96 523.41 783.31 528.57 782.72 533.45C781.6 542.78 774.36 541.27 767.8 544.34C764.72 545.78 762.43 548.55 761.17 551.65C758.45 558.32 758.41 568.11 756.79 575.44C753.99 588.08 749.09 600.59 741.97 611.42C711.53 657.69 643.7 666.45 601.62 630.91C586.1 617.8 575.18 598.91 570.3 579.31C568.78 573.18 567.57 566.8 567.08 560.5C566.7 555.69 567.49 550.16 564.48 546.02C561.33 541.7 554.45 540 549.5 539.03C541.77 537.52 525.89 539.25 521.47 546.95C519.05 551.18 519.48 563.82 518.71 569.44C517.04 581.67 512.76 593.55 506.91 604.39C484.24 646.45 430.4 663.58 386.67 645.8C359.48 634.74 340.68 611.04 332.19 583.39C330.3 577.22 329.04 570.88 328.12 564.5C327.48 560 327.42 555.19 325.51 550.97C321.38 541.82 313.84 545.41 307.72 540.79C302.3 536.7 303.74 524.52 303.85 518.5C303.91 515.6 303.7 512.52 305.61 510.11C308.13 506.95 312.85 506.67 316.55 506.43C322.65 506.02 328.53 505.26 334.49 503.93C345.72 501.44 356.19 497.01 367.11 493.56C379.76 489.56 392.58 486.83 405.77 485.45ZM411.51 513.5C405.31 509.86 395.97 511.79 389.34 513.74C370.33 519.34 357.59 535.93 355.75 555.5C355.19 561.48 354.85 569.83 358.5 574.84C358.87 574.57 359.41 574.57 359.74 574.26C361.64 572.47 363.17 565.32 364.18 562.64C367.12 554.85 370.98 547.26 376.13 540.68C381.97 533.2 389.81 527.31 397.77 522.29C402.21 519.49 408.38 517.66 411.51 513.5ZM651.13 513.5C644.83 510.54 636.74 511.83 630.21 513.63C611.54 518.76 598.33 534.38 595.87 553.5C595.02 560.07 594.26 569.55 598.5 575.04C598.84 574.71 599.4 574.63 599.71 574.25C601.5 572.03 603.22 564.06 604.46 560.94C607.74 552.64 611.97 545.06 617.82 538.3C623.42 531.83 630.37 526.55 637.68 522.18C640.38 520.57 648.95 517.01 650.49 515.01C651.84 513.26 649.91 515.54 651.13 513.5ZM314.87 591C311.46 593.41 309.96 599.37 308.6 603.26C305.88 611.05 305.14 619.27 305.19 627.5C305.22 632.05 306.12 636.91 305.62 641.44C305.16 645.63 301.7 649.8 300.09 653.66C297.75 659.24 296.28 665.46 296 671.5C295.58 680.24 299.16 688.21 302.38 696.08C303.51 698.84 305.04 701.74 305.65 704.68C306.23 707.52 305.91 710.61 305.9 713.5C305.89 721.41 305.89 729.04 309 736.46C311.62 742.72 316.13 747.04 320.31 752.2C320.9 752.93 324.51 756.71 324.62 756.93C325.12 757.92 324.94 759.37 325.12 760.46C325.6 763.3 326.8 766.03 327.53 768.81C328 770.58 328.2 773.52 329.32 775.03C330.15 776.17 331.12 776.24 332.1 777.1C333.12 777.99 332.05 777.39 333.02 778.5C332.3 779.07 331.41 779.04 330.8 779.76C329.89 780.83 333.13 787.23 333.93 788.55C338.9 796.65 346.31 801.88 353.5 807.78C354.35 806.3 355.18 805.43 355.1 803.5C354.93 799.51 352.13 798.58 355.06 794.5C354.38 794.19 353.53 794.29 352.88 793.92C351.92 793.37 351.73 791.85 350.46 791.68C349.26 791.52 345.06 795.14 345.31 790.18C345.34 789.72 345.53 789.27 345.5 788.81C346.51 788.69 349.31 789.19 349.45 789.16C350.67 788.92 350.66 787.78 351.67 787.41C354.71 786.31 355.78 789.37 356.12 791.5C358.84 790.88 356.23 792.66 358.21 791.63C358.32 791.57 358.59 790.23 358.6 790.21C359.28 789.3 359.69 789.7 360.5 789.31C363.94 792.26 362.62 793.84 359.17 795.5C360.56 796.78 362.1 798.8 363.81 799.66C364.54 800.04 365.55 799.92 366.23 800.34C366.94 800.79 367.03 801.67 367.73 802.11C368.84 802.81 370.02 802.37 371 803.4C372.55 805.02 371.75 807.33 374.18 808.31C375.47 808.83 376.16 808.15 377.45 808.23C378.69 808.31 379.81 809.05 380.92 809.5C380.99 811.61 379.1 815.86 376.42 815.9C375.45 815.91 374 814.79 373.08 814.5C373.89 816.43 374.69 818.37 375.5 820.3C376.36 819.36 376.69 817.95 378.03 818.39C378.95 818.7 379.48 820.67 379.97 821.42C380.75 822.6 381.89 824.49 382.92 825.44C383.66 826.13 384.61 826.34 385.37 826.98C385.96 827.47 386.22 828.27 386.85 828.71C387.7 829.31 388.72 829.3 389.55 829.9C390.13 830.31 390.4 831.1 390.96 831.55C391.58 832.04 392.34 832.16 392.96 832.6C394.1 833.42 394.9 834.62 396.17 835.3C396.85 835.66 397.89 835.77 398.48 836.2C399.31 836.81 399.41 838.13 400.55 838.39C402.59 838.86 402.04 836.93 405.01 838.4C406.33 839.05 406.31 840.23 407.14 841.23C407.64 841.83 408.35 841.88 408.79 842.53C410.63 845.22 408.78 845.17 412.5 846.69C413.87 845.58 412.91 847.41 413.77 846.29C414.46 845.4 413.83 844.04 415.03 843.33C415.78 842.89 416.74 843.45 417.5 843.43C419.3 843.39 424.01 842.97 425.43 844.31C426.39 845.22 426.12 846.66 426.75 847.76C427.34 848.78 428.65 849.28 429.38 850.13C429.88 850.7 430.02 851.43 430.54 851.98C431.84 853.38 433.75 854.34 435.11 855.67C435.48 856.03 436.38 857.94 436.99 857.73C437.67 857.48 439.03 855.44 439.5 854.85C439.67 855.17 440.15 855.22 440.38 855.5C441.77 857.17 440.18 859.38 444.55 860.03C446.14 860.26 447.79 859.1 449.27 860.19C449.92 860.67 450.17 863.48 451.23 864.51C451.88 865.15 452.95 865.05 453.56 865.77C454.67 867.07 454.48 868.37 455.93 869.56C456.68 870.18 460.09 872.18 460.41 872.71C461.04 873.75 460.07 874.64 460.71 875.74C460.76 875.82 464.08 878.6 464.5 879C465.52 876.25 466.44 875.13 468.85 873.5C467.1 871.09 466 869.56 466.38 866.5C468.95 866.47 471.4 866.53 472.16 869.52C472.4 870.45 471.79 871.4 472.19 872.37C472.86 874 475.66 873.7 476.56 875.04C477.43 876.36 476.57 878.53 476.5 880C477.83 878.7 479.17 877.4 480.5 876.09C482.47 879.29 482.15 879.79 481.5 883.24C483.17 883.7 484.83 884.16 486.5 884.62C484.21 881.13 484.05 879.77 486.5 876.4C488.5 877.93 490.5 879.47 492.5 881C492.87 880.75 494.5 879.42 494.51 879.41C495.49 879 496.4 879.32 497.41 879.04C498.95 878.62 499.55 877.68 501.45 878.11C502.33 878.31 502.74 879.11 503.57 879.33C504.47 879.57 505.31 879.21 506.21 879.39C508.05 879.76 509.3 881.38 510.71 881.89C511.57 882.21 512.71 881.75 513.49 882.13C514.81 882.8 515.53 886.52 518.39 885.6C519.09 885.38 519.03 884.58 519.51 884.16C520.35 883.43 521.56 882.89 522.5 882.29C524.58 884.48 525.94 887.51 525.18 890.5C519.56 891.24 522.32 888.67 519.12 887.47C518.02 887.06 516.95 888.18 515.71 887.8C512.9 886.95 514.6 884.9 510.98 887.5C511.84 889.24 513.29 891.18 515.5 891.34C516.98 891.45 517.74 890.14 519.2 891.13C520.49 892 519.8 894.19 520.32 895.4C521.03 897.05 520.4 894.99 521.5 896.89C522.21 896.19 522.84 895.75 523.48 894.94C523.98 894.29 524.2 892.9 524.96 892.48C526.26 891.77 526.99 893.19 528.32 892.93C529.67 892.68 530.63 891.3 531.5 890.37C531.82 890.85 532.43 891.11 532.71 891.61C533.12 892.38 532.81 893.4 533.59 894.01C534.34 894.6 535.44 893.96 536.2 894.37C537 894.79 537.9 896.44 538.5 897.15C541.7 896.59 540.56 896.32 542.79 895.5C544.1 895.02 544.7 895.64 545.96 894.55C547.22 893.44 546.25 891.46 547.5 890.64C548.31 890.11 549.4 890.62 550.29 890.07C551.83 889.13 550.12 889.81 551.74 888.5C550.08 886.17 548.42 883.83 546.76 881.5C548.7 880.83 550.63 880.17 552.57 879.5C551.35 878.86 549.97 877.83 548.55 877.89C546.71 877.96 544.71 880.08 542.75 879.58C541.22 879.19 540.55 877.08 539.4 876.23C536.49 874.08 532.8 875.56 535.3 870.5C538.19 870.37 536.58 871.05 538.51 871.86C539.95 872.45 541.55 871.96 542.93 872.52C543.89 872.91 546.28 875.51 547.46 875.78C549.45 876.24 549.97 874.65 551.63 874.47C552.94 874.33 554.24 875.99 555.62 875.93C556.51 875.9 556.91 874.96 557.6 874.93C558.64 874.87 558.71 875.6 559.58 875.73C561.16 875.95 562.73 875.1 564.33 875.37C567 875.81 567.15 879.65 569.7 880.11C571.77 880.48 571.68 878.5 573.44 878.49C574.11 878.49 574.85 879.76 575.56 879.97C576.81 880.33 583.23 879.42 584.31 878.71C584.99 878.26 584.82 876.79 585.64 876.55C587.11 876.11 587.27 877.53 588.5 877.46C589.64 877.4 589.79 876.47 590.76 876.28C592.12 876.01 593.21 877.09 594.5 876.98C596.38 876.81 597.73 874.75 599 873.5C598.16 872.87 599.05 872.94 598.11 872.49C597.05 871.98 595.85 872.49 594.76 871.92C594.29 871.68 593.52 870.63 593.3 870.18C592.09 867.75 592.93 866.84 594.5 864.8C595.58 865.6 597.16 867.34 598.52 867.47C599.35 867.55 600 866.78 600.77 866.59C602.53 866.17 603.92 867.01 605.52 866.86C606.59 866.77 607.53 865.62 608.57 866.03C609.97 866.6 608.88 866.67 610.08 867.5C608.9 868.18 605.17 869.69 605.37 871.37C605.52 872.66 605.61 871.3 606 872.5C607.34 871.9 607.43 871.33 608.62 870.68C609.79 870.04 609.18 871.03 610.34 870.56C611.55 870.07 612.36 867.7 612.25 866.52C612.11 865.09 610.27 863.18 609.88 861.5C613.1 861.07 609.58 861.09 612.46 860.93C616.98 860.68 615.6 863.15 621.29 860.5C619.45 859.52 620.61 859.77 619.05 859.1C616.34 857.94 616.72 859.57 615.01 856.5C617.72 853.9 616.47 855.9 619.37 855.8C620.56 855.75 621.57 854.46 622.74 854.33C624.23 854.16 625.8 855.68 626.98 856.5C625.8 858.02 627.74 856.99 626.15 858.28C625.36 858.93 624.57 858.16 623.78 858.7C623.02 859.21 622.48 860.63 621.86 861.36C617.98 865.92 616.49 864.28 617.5 871.3C617.61 870.96 618.02 870.8 618.19 870.48C618.7 869.54 618.21 868.51 618.61 867.54C619.1 866.34 621.05 864.45 622.48 864.5C623.6 864.53 625.44 865.91 626.5 866.43C626.7 865.72 627.42 865.22 627.56 864.5C627.73 863.59 627.19 862.96 627.5 861.96C627.66 861.43 628.57 860.94 628.83 860.35C629.18 859.56 629.13 858.58 629.35 857.74C630.22 854.47 631.24 851.01 632.46 847.85C634.68 842.07 637.87 837.05 641.93 832.41C645.02 828.87 648.3 825.32 652.21 822.67C653.66 821.68 658.79 819.25 659.43 817.98C660.28 816.32 659.14 813.22 658.95 811.5C658.47 807.22 658.62 802.78 659.05 798.5C660.66 782.88 668.74 769.13 681.09 759.57C689.05 753.41 698.69 749.28 708.77 748.44C712.03 748.17 715.26 748.41 718.5 748.72C719.91 748.86 721.97 749.43 723.32 748.77C724.37 748.26 724.99 745.99 725.51 745C727.07 742.04 728.84 739.09 731 736.52C734.63 732.18 738.94 728.26 743.73 725.22C748 722.51 752.58 720.23 756.05 716.5C753.47 710.1 750.09 714.44 745.69 713.19C744.57 712.87 743.88 712.09 742.91 711.5C746.7 708.04 745.34 710.56 748.67 709.54C749.46 709.29 749.98 708.68 750.73 708.35C751.59 707.96 752.65 708.6 753.24 707.47C753.87 706.27 752.2 704.45 751.57 703.5C753.57 702.09 750.95 703.2 752.71 702.28C753.8 701.7 754.99 702.27 755.77 701C756.62 699.59 753.78 695.68 756.02 694.33C756.47 694.06 757.08 694.65 757.59 694.5C757.55 695.52 756.55 697.57 757.5 698.26C757.79 698.48 758.29 698.38 758.5 698.67C759.83 696.62 761.17 694.58 762.5 692.53C763.76 692.96 765.46 693.18 766.45 694.19C767.12 694.87 766.96 696.14 767.86 696.66C768.79 697.2 772.38 696.38 773.26 695.82C773.91 695.4 774.68 694.07 775.14 693.5C774.6 693.46 774.26 692.84 773.74 692.68C773.03 692.47 769.76 693.5 768.43 693.5C768.32 692.47 769.27 688.87 768.33 688.56C767.15 688.18 765.54 690.87 765.01 688.67C764.92 688.29 765.23 687.83 765.02 687.5C765.54 686.56 765.56 685.84 766.59 685.32C767.84 684.7 770.38 685.13 770.75 683.34C771.06 681.82 770.47 683.4 770.5 681.86C769.96 681.48 770.21 680.56 769.38 680.4C768.16 680.16 766.3 683.96 765.5 684.92C764.52 683.89 762.57 682.5 763.39 680.75C763.74 680 764.93 680.3 765.23 679.41C765.59 678.33 764.37 677.68 764.78 676.63C765.34 675.23 768.98 674.59 769.78 673.89C770.26 673.48 770.07 672.99 770.41 672.5C769.87 671.5 768.69 667.64 768.13 667.26C767.34 666.73 766.5 667.6 765.69 667.24C764.72 666.81 764.79 666.21 764.17 665.5C767.93 662.89 766.75 664.65 770.5 665.2C770.77 663.28 771.71 662.02 770.43 660.13C768.73 657.65 765.75 658.63 768.5 654C770.48 653.86 768.52 653.34 770.5 653.49C773.36 653.72 773.43 656.43 777.3 654.9C777.83 654.69 779.13 654.45 779.48 653.93C779.73 653.55 779.34 653 779.5 652.58C778.1 652.32 775.95 652.76 774.81 652.1C773.69 651.46 773.98 649.5 772.31 649.12C770.33 648.66 768.57 651.38 765.13 649.22C763.53 648.22 763.11 645.97 761.96 644.63C761.76 644.39 759.45 642.03 759.33 641.95C756.82 640.38 760.09 642.75 757.29 641.5C756.67 638.63 758.05 640.13 758.32 638.43C758.67 636.29 757.36 636.4 758.51 634.05C759.28 632.51 761.88 631.79 762.45 630.32C762.84 629.32 762.04 628.64 762.16 627.65C762.28 626.6 763.1 625.42 763.5 624.44C758.54 625.73 761.93 625.76 759.61 629.03C758.29 630.9 754.86 631.2 753.07 632.52C752.21 633.16 751.69 634.39 750.49 634.47C748.88 634.58 750.35 634.06 748.84 633.81C750.24 630.76 752.92 628.16 754.93 625.38C757.04 622.46 758.93 619.36 760.74 616.25C768.03 603.79 772.35 590.64 774.97 576.5C775.58 573.19 775.98 564.53 777.72 562.16C778.74 560.77 781.99 559.53 783.62 559.21C784.89 558.96 785.93 558.78 787.13 559.38C788.88 560.27 791.89 566.54 793.04 568.42C799.91 579.61 806.01 591.33 807.92 604.5C809.31 614.12 808.16 623.95 810.09 633.48C811.57 640.76 814.82 647.56 816.67 654.74C819.18 664.44 819.68 674.53 819.11 684.5C818.62 692.94 816.28 701.23 813.66 709.23C812.28 713.44 810.46 717.52 809.42 721.84C808.02 727.67 807.43 733.67 806.26 739.56C805.84 741.69 805.75 744.5 804.77 746.48C804.46 747.09 803.85 747.5 803.5 748.09C799.35 745.65 795.11 743.31 790.35 742.27C775.65 739.05 758.81 743.59 749.55 756.07C744.59 762.78 743.97 770.74 740.5 778C735.27 775.5 730.27 773.81 724.44 773.4C698.8 771.55 681.77 791.5 682.5 816.23C682.71 823.64 685.34 829.93 688.1 836.5C680.52 838.73 673.03 840.14 666.56 845.03C654.56 854.1 651.12 871.15 654.4 885.21C656.22 892.98 660.61 899.14 665.09 905.5C661.91 909.23 657.01 911.88 652.7 914.2C642.01 919.96 630.71 924.21 618.5 924.95C609.27 925.51 599.77 923.86 590.74 926.33C577.35 929.99 567.24 937.64 552.5 939.01C537.95 940.37 524.48 937.3 510.82 932.61C503.7 930.16 496.84 926.63 489.38 925.3C481.53 923.9 473.44 924.49 465.54 923.69C453.53 922.47 441.36 918.43 430.7 912.8C423.62 909.05 416.98 903.84 411.12 898.39C406.59 894.18 402.55 889.58 397.27 886.24C386.15 879.21 371.7 877.78 361.91 868.58C351.74 859.03 348.09 845.52 339.06 835.42C328.85 823.99 314.58 816.21 307.11 802.38C304.44 797.44 303 792.01 302.11 786.5C301.39 782.04 301.07 777.4 299.39 773.16C298.03 769.73 295.73 766.82 293.63 763.84C287.99 755.86 281.29 748.08 279.41 738.2C277.76 729.5 280.26 720.46 278.55 711.86C277.35 705.86 274.13 700.14 272.22 694.33C269.89 687.23 268.81 679.97 268.87 672.5C268.94 665.73 269.95 659.04 272.19 652.64C274.31 646.57 277.67 640.82 279.05 634.5C280.28 628.86 279.3 623.19 279.28 617.5C279.26 612.16 280.05 606.73 281.03 601.5C283.23 589.81 289.13 578.7 294.99 568.47C296.08 566.56 299.55 559.7 301.52 559.25C303.94 558.71 308.47 560.58 309.55 562.87C311 565.93 310.8 570.08 311.32 573.37C312.25 579.27 314.32 585.1 314.87 591ZM541.68 668.24C544.35 667.59 546.73 668.13 549.11 669.39C554.84 672.43 565.44 680.42 565.35 687.5C565.25 694.65 558.92 699.58 553.71 703.21C550.24 705.63 547.01 708.8 543.24 710.72C535.55 714.63 525.19 712.84 518.02 708.48C511.94 704.77 514.01 699.14 516.1 693.55C519.52 684.39 526.18 678.94 533.78 673.29C536.18 671.5 538.67 668.98 541.68 668.24ZM733.57 674.21C740.72 673.09 747.46 683 746.12 689.48C745.23 693.76 739.44 696.6 735.5 696.98C718.59 698.62 721.94 676.04 733.57 674.21ZM355.63 683.2C361.8 681.99 369.77 687.65 372.61 692.9C374.21 695.85 374.89 699.16 374.85 702.5C374.78 707.61 372.67 713.18 367.31 714.77C360.86 716.68 347.15 712.77 345.34 705.25C343.85 699.05 348.37 684.62 355.63 683.2ZM641.77 707.4C649.59 705.59 655.12 708.86 661.19 713.35C663.85 715.32 667.24 717.78 668.54 720.94C669.82 724.05 669.64 727.24 668.87 730.45C666.14 741.83 659.33 740.4 650.5 743.96C642.63 747.13 634.66 751.71 625.91 748.59C619.23 746.21 621.24 739.9 621.73 734.5C621.97 731.71 621.78 728.83 622.56 726.11C625.12 717.2 632.77 709.48 641.77 707.4ZM419.65 745.44C428.75 745.04 436.46 749.83 440.59 757.89C442.34 761.32 442.42 765.74 444.61 768.88C446.24 771.21 449.33 772.03 451.17 774.29C455.44 779.55 456.09 791.48 452.85 797.34C451.47 799.84 449.21 801.24 446.42 801.75C440.79 802.79 435.25 802.55 429.67 804.24C425.54 805.49 420.89 808.76 416.5 808.72C411.62 808.67 405.09 800.09 401.81 796.71C397.42 792.18 390.68 787.56 389.52 780.96C386.78 765.37 404.33 746.1 419.65 745.44ZM508.6 759.28C518.37 757.74 519.43 770.58 515.36 775.87C513.39 778.42 510.54 779.01 507.5 779.2C506.21 779.27 504.2 778.83 503.1 779.62C501.72 780.62 500.62 787.86 495.25 785.31C492.06 783.8 493.52 779.19 494.13 776.54C495.78 769.42 500.52 760.55 508.6 759.28ZM568.63 805.45C574.21 805.36 575.97 809.92 580.21 812.29C585.46 815.22 592.32 815.1 594.72 821.74C597.01 828.1 595.69 836.67 591.52 842.01C589.05 845.17 585.32 847.14 582.67 850.15C580.48 852.65 578.88 855.64 576.53 858.03C572.53 862.07 566.04 863.67 560.54 862.82C554.39 861.86 551.64 856.4 546.24 854.31C542.8 852.98 538.93 853.29 537.44 849.12C536.19 845.61 537.41 842.01 537.88 838.5C538.31 835.23 538.35 831.97 539.36 828.79C541.88 820.92 548.88 816.25 555.21 811.67C558.98 808.93 563.76 805.52 568.63 805.45ZM728.56 810.25C732.74 809.78 737.95 814.72 739.02 818.55C739.59 820.57 739.34 822.45 739.12 824.5C738.81 827.47 738.6 829.81 735.44 830.88C730.77 832.44 725.37 831.09 720.89 829.56C719.51 829.09 717.2 828.52 716.53 827.03C715.81 825.42 717.41 822.86 718.11 821.47C720.06 817.64 723.68 810.8 728.56 810.25ZM791.62 816.22C792.98 815.99 794.27 816.42 795.58 816.71C797.89 817.24 800.22 817.74 801.77 819.72C807.62 827.19 796.3 844.87 786.78 842.57C782.77 841.6 783.66 835.88 781.43 833.09C779.47 830.66 775.49 830.39 774.2 827.33C773.81 826.4 773.57 825.52 773.59 824.5C773.68 820.78 777.11 818.91 780.48 819.13C782.23 819.24 783.62 820.11 785.43 819.83C787.87 819.45 789.22 816.65 791.62 816.22ZM571.33 820.5C567.23 815.98 564.64 817.78 560.03 820.47C553.61 824.22 547.84 828.91 549.5 837C550.98 836.74 549.96 837.4 551.34 836.95C552.67 836.51 553.94 834.38 554.86 833.36C557.24 830.74 559.84 828.29 562.68 826.16C564.92 824.47 568.53 823.52 570.43 821.86C570.84 821.5 570.96 820.9 571.33 820.5ZM290.57 838.18C297.75 836.9 299.42 844.75 304.13 848.38C306.31 850.06 309.23 850.38 311.35 852.08C312.97 853.38 313.85 855.38 313.73 857.46C313.48 861.81 309.28 864.3 306.71 867.22C304.97 869.21 303.4 871.84 300.5 872.21C297.72 872.56 295.34 870.8 292.56 871.21C287.23 872 286.84 876.72 279.56 874.87C269.63 872.34 272.04 864.69 274.96 857.5C275.53 856.1 276.31 854.75 276.72 853.3C277.4 850.89 277.45 848.33 278.56 846.05C280.15 842.74 287.02 838.82 290.57 838.18ZM734.74 864.33C744.58 861.87 747.01 867.64 753.59 872.94C756.59 875.35 760.56 876.84 761.49 880.99C762.53 885.6 758.75 894.7 755.9 898.41C752.54 902.78 741.32 902.05 736.01 903.5C731.23 904.82 725.91 908.99 720.81 907.59C716.54 906.41 714.44 902.29 715.67 898.24C717.67 891.73 722.25 886.38 724.53 880.06C725.83 876.47 725.25 872.04 727.26 868.77C728.82 866.24 731.96 865.03 734.74 864.33ZM329.74 894.36C334.74 893.27 341.14 896.33 343.74 900.76C346.47 905.4 343.85 911.51 338.97 913.46C334.51 915.24 328.68 913.97 324.4 912.17C323.01 911.58 320.96 910.8 320.46 909.18C319.91 907.43 320.84 905.9 321.7 904.43C323.65 901.11 325.58 895.26 329.74 894.36Z" fill="#1b2023" fill-rule="evenodd" stroke="#1b2023" stroke-width="0.25" stroke-linejoin="round"/>
<path d="M748.84 633.81C750.35 634.06 748.88 634.58 750.49 634.47C751.69 634.39 752.21 633.16 753.07 632.52C754.86 631.2 758.29 630.9 759.61 629.03C761.93 625.76 758.54 625.73 763.5 624.44C763.1 625.42 762.28 626.6 762.16 627.65C762.04 628.64 762.84 629.32 762.45 630.32C761.88 631.79 759.28 632.51 758.51 634.05C757.36 636.4 758.67 636.29 758.32 638.43C758.05 640.13 756.67 638.63 757.29 641.5C760.09 642.75 756.82 640.38 759.33 641.95C759.45 642.03 761.76 644.39 761.96 644.63C763.11 645.97 763.53 648.22 765.13 649.22C768.57 651.38 770.33 648.66 772.31 649.12C773.98 649.5 773.69 651.46 774.81 652.1C775.95 652.76 778.1 652.32 779.5 652.58C779.34 653 779.73 653.55 779.48 653.93C779.13 654.45 777.83 654.69 777.3 654.9C773.43 656.43 773.36 653.72 770.5 653.49C768.52 653.34 770.48 653.86 768.5 654C765.75 658.63 768.73 657.65 770.43 660.13C771.71 662.02 770.77 663.28 770.5 665.2C766.75 664.65 767.93 662.89 764.17 665.5C764.79 666.21 764.72 666.81 765.69 667.24C766.5 667.6 767.34 666.73 768.13 667.26C768.69 667.64 769.87 671.5 770.41 672.5C770.07 672.99 770.26 673.48 769.78 673.89C768.98 674.59 765.34 675.23 764.78 676.63C764.37 677.68 765.59 678.33 765.23 679.41C764.93 680.3 763.74 680 763.39 680.75C762.57 682.5 764.52 683.89 765.5 684.92C766.3 683.96 768.16 680.16 769.38 680.4C770.21 680.56 769.96 681.48 770.5 681.86C770.47 683.4 771.06 681.82 770.75 683.34C770.38 685.13 767.84 684.7 766.59 685.32C765.56 685.84 765.54 686.56 765.02 687.5C765.23 687.83 764.92 688.29 765.01 688.67C765.54 690.87 767.15 688.18 768.33 688.56C769.27 688.87 768.32 692.47 768.43 693.5C769.76 693.5 773.03 692.47 773.74 692.68C774.26 692.84 774.6 693.46 775.14 693.5C774.68 694.07 773.91 695.4 773.26 695.82C772.38 696.38 768.79 697.2 767.86 696.66C766.96 696.14 767.12 694.87 766.45 694.19C765.46 693.18 763.76 692.96 762.5 692.53C761.17 694.58 759.83 696.62 758.5 698.67C758.29 698.38 757.79 698.48 757.5 698.26C756.55 697.57 757.55 695.52 757.59 694.5C757.08 694.65 756.47 694.06 756.02 694.33C753.78 695.68 756.62 699.59 755.77 701C754.99 702.27 753.8 701.7 752.71 702.28C750.95 703.2 753.57 702.09 751.57 703.5C752.2 704.45 753.87 706.27 753.24 707.47C752.65 708.6 751.59 707.96 750.73 708.35C749.98 708.68 749.46 709.29 748.67 709.54C745.34 710.56 746.7 708.04 742.91 711.5C743.88 712.09 744.57 712.87 745.69 713.19C750.09 714.44 753.47 710.1 756.05 716.5C752.58 720.23 748 722.51 743.73 725.22C738.94 728.26 734.63 732.18 731 736.52C728.84 739.09 727.07 742.04 725.51 745C724.99 745.99 724.37 748.26 723.32 748.77C721.97 749.43 719.91 748.86 718.5 748.72C715.26 748.41 712.03 748.17 708.77 748.44C698.69 749.28 689.05 753.41 681.09 759.57C668.74 769.13 660.66 782.88 659.05 798.5C658.62 802.78 658.47 807.22 658.95 811.5C659.14 813.22 660.28 816.32 659.43 817.98C658.79 819.25 653.66 821.68 652.21 822.67C648.3 825.32 645.02 828.87 641.93 832.41C637.87 837.05 634.68 842.07 632.46 847.85C631.24 851.01 630.22 854.47 629.35 857.74C629.13 858.58 629.18 859.56 628.83 860.35C628.57 860.94 627.66 861.43 627.5 861.96C627.19 862.96 627.73 863.59 627.56 864.5C627.42 865.22 626.7 865.72 626.5 866.43C625.44 865.91 623.6 864.53 622.48 864.5C621.05 864.45 619.1 866.34 618.61 867.54C618.21 868.51 618.7 869.54 618.19 870.48C618.02 870.8 617.61 870.96 617.5 871.3C616.49 864.28 617.98 865.92 621.86 861.36C622.48 860.63 623.02 859.21 623.78 858.7C624.57 858.16 625.36 858.93 626.15 858.28C627.74 856.99 625.8 858.02 626.98 856.5C625.8 855.68 624.23 854.16 622.74 854.33C621.57 854.46 620.56 855.75 619.37 855.8C616.47 855.9 617.72 853.9 615.01 856.5C616.72 859.57 616.34 857.94 619.05 859.1C620.61 859.77 619.45 859.52 621.29 860.5C615.6 863.15 616.98 860.68 612.46 860.93C609.58 861.09 613.1 861.07 609.88 861.5C610.27 863.18 612.11 865.09 612.25 866.52C612.36 867.7 611.55 870.07 610.34 870.56C609.18 871.03 609.79 870.04 608.62 870.68C607.43 871.33 607.34 871.9 606 872.5C605.61 871.3 605.52 872.66 605.37 871.37C605.17 869.69 608.9 868.18 610.08 867.5C608.88 866.67 609.97 866.6 608.57 866.03C607.53 865.62 606.59 866.77 605.52 866.86C603.92 867.01 602.53 866.17 600.77 866.59C600 866.78 599.35 867.55 598.52 867.47C597.16 867.34 595.58 865.6 594.5 864.8C592.93 866.84 592.09 867.75 593.3 870.18C593.52 870.63 594.29 871.68 594.76 871.92C595.85 872.49 597.05 871.98 598.11 872.49C599.05 872.94 598.16 872.87 599 873.5C597.73 874.75 596.38 876.81 594.5 876.98C593.21 877.09 592.12 876.01 590.76 876.28C589.79 876.47 589.64 877.4 588.5 877.46C587.27 877.53 587.11 876.11 585.64 876.55C584.82 876.79 584.99 878.26 584.31 878.71C583.23 879.42 576.81 880.33 575.56 879.97C574.85 879.76 574.11 878.49 573.44 878.49C571.68 878.5 571.77 880.48 569.7 880.11C567.15 879.65 567 875.81 564.33 875.37C562.73 875.1 561.16 875.95 559.58 875.73C558.71 875.6 558.64 874.87 557.6 874.93C556.91 874.96 556.51 875.9 555.62 875.93C554.24 875.99 552.94 874.33 551.63 874.47C549.97 874.65 549.45 876.24 547.46 875.78C546.28 875.51 543.89 872.91 542.93 872.52C541.55 871.96 539.95 872.45 538.51 871.86C536.58 871.05 538.19 870.37 535.3 870.5C532.8 875.56 536.49 874.08 539.4 876.23C540.55 877.08 541.22 879.19 542.75 879.58C544.71 880.08 546.71 877.96 548.55 877.89C549.97 877.83 551.35 878.86 552.57 879.5C550.63 880.17 548.7 880.83 546.76 881.5C548.42 883.83 550.08 886.17 551.74 888.5C550.12 889.81 551.83 889.13 550.29 890.07C549.4 890.62 548.31 890.11 547.5 890.64C546.25 891.46 547.22 893.44 545.96 894.55C544.7 895.64 544.1 895.02 542.79 895.5C540.56 896.32 541.7 896.59 538.5 897.15C537.9 896.44 537 894.79 536.2 894.37C535.44 893.96 534.34 894.6 533.59 894.01C532.81 893.4 533.12 892.38 532.71 891.61C532.43 891.11 531.82 890.85 531.5 890.37C530.63 891.3 529.67 892.68 528.32 892.93C526.99 893.19 526.26 891.77 524.96 892.48C524.2 892.9 523.98 894.29 523.48 894.94C522.84 895.75 522.21 896.19 521.5 896.89C520.4 894.99 521.03 897.05 520.32 895.4C519.8 894.19 520.49 892 519.2 891.13C517.74 890.14 516.98 891.45 515.5 891.34C513.29 891.18 511.84 889.24 510.98 887.5C514.6 884.9 512.9 886.95 515.71 887.8C516.95 888.18 518.02 887.06 519.12 887.47C522.32 888.67 519.56 891.24 525.18 890.5C525.94 887.51 524.58 884.48 522.5 882.29C521.56 882.89 520.35 883.43 519.51 884.16C519.03 884.58 519.09 885.38 518.39 885.6C515.53 886.52 514.81 882.8 513.49 882.13C512.71 881.75 511.57 882.21 510.71 881.89C509.3 881.38 508.05 879.76 506.21 879.39C505.31 879.21 504.47 879.57 503.57 879.33C502.74 879.11 502.33 878.31 501.45 878.11C499.55 877.68 498.95 878.62 497.41 879.04C496.4 879.32 495.49 879 494.51 879.41C494.5 879.42 492.87 880.75 492.5 881C490.5 879.47 488.5 877.93 486.5 876.4C484.05 879.77 484.21 881.13 486.5 884.62C484.83 884.16 483.17 883.7 481.5 883.24C482.15 879.79 482.47 879.29 480.5 876.09C479.17 877.4 477.83 878.7 476.5 880C476.57 878.53 477.43 876.36 476.56 875.04C475.66 873.7 472.86 874 472.19 872.37C471.79 871.4 472.4 870.45 472.16 869.52C471.4 866.53 468.95 866.47 466.38 866.5C466 869.56 467.1 871.09 468.85 873.5C466.44 875.13 465.52 876.25 464.5 879C464.08 878.6 460.76 875.82 460.71 875.74C460.07 874.64 461.04 873.75 460.41 872.71C460.09 872.18 456.68 870.18 455.93 869.56C454.48 868.37 454.67 867.07 453.56 865.77C452.95 865.05 451.88 865.15 451.23 864.51C450.17 863.48 449.92 860.67 449.27 860.19C447.79 859.1 446.14 860.26 444.55 860.03C440.18 859.38 441.77 857.17 440.38 855.5C440.15 855.22 439.67 855.17 439.5 854.85C439.03 855.44 437.67 857.48 436.99 857.73C436.38 857.94 435.48 856.03 435.11 855.67C433.75 854.34 431.84 853.38 430.54 851.98C430.02 851.43 429.88 850.7 429.38 850.13C428.65 849.28 427.34 848.78 426.75 847.76C426.12 846.66 426.39 845.22 425.43 844.31C424.01 842.97 419.3 843.39 417.5 843.43C416.74 843.45 415.78 842.89 415.03 843.33C413.83 844.04 414.46 845.4 413.77 846.29C412.91 847.41 413.87 845.58 412.5 846.69C408.78 845.17 410.63 845.22 408.79 842.53C408.35 841.88 407.64 841.83 407.14 841.23C406.31 840.23 406.33 839.05 405.01 838.4C402.04 836.93 402.59 838.86 400.55 838.39C399.41 838.13 399.31 836.81 398.48 836.2C397.89 835.77 396.85 835.66 396.17 835.3C394.9 834.62 394.1 833.42 392.96 832.6C392.34 832.16 391.58 832.04 390.96 831.55C390.4 831.1 390.13 830.31 389.55 829.9C388.72 829.3 387.7 829.31 386.85 828.71C386.22 828.27 385.96 827.47 385.37 826.98C384.61 826.34 383.66 826.13 382.92 825.44C381.89 824.49 380.75 822.6 379.97 821.42C379.48 820.67 378.95 818.7 378.03 818.39C376.69 817.95 376.36 819.36 375.5 820.3C374.69 818.37 373.89 816.43 373.08 814.5C374 814.79 375.45 815.91 376.42 815.9C379.1 815.86 380.99 811.61 380.92 809.5C379.81 809.05 378.69 808.31 377.45 808.23C376.16 808.15 375.47 808.83 374.18 808.31C371.75 807.33 372.55 805.02 371 803.4C370.02 802.37 368.84 802.81 367.73 802.11C367.03 801.67 366.94 800.79 366.23 800.34C365.55 799.92 364.54 800.04 363.81 799.66C362.1 798.8 360.56 796.78 359.17 795.5C362.62 793.84 363.94 792.26 360.5 789.31C359.69 789.7 359.28 789.3 358.6 790.21C358.59 790.23 358.32 791.57 358.21 791.63C356.23 792.66 358.84 790.88 356.12 791.5C355.78 789.37 354.71 786.31 351.67 787.41C350.66 787.78 350.67 788.92 349.45 789.16C349.31 789.19 346.51 788.69 345.5 788.81C345.53 789.27 345.34 789.72 345.31 790.18C345.06 795.14 349.26 791.52 350.46 791.68C351.73 791.85 351.92 793.37 352.88 793.92C353.53 794.29 354.38 794.19 355.06 794.5C352.13 798.58 354.93 799.51 355.1 803.5C355.18 805.43 354.35 806.3 353.5 807.78C346.31 801.88 338.9 796.65 333.93 788.55C333.13 787.23 329.89 780.83 330.8 779.76C331.41 779.04 332.3 779.07 333.02 778.5C332.05 777.39 333.12 777.99 332.1 777.1C331.12 776.24 330.15 776.17 329.32 775.03C328.2 773.52 328 770.58 327.53 768.81C326.8 766.03 325.6 763.3 325.12 760.46C324.94 759.37 325.12 757.92 324.62 756.93C324.51 756.71 320.9 752.93 320.31 752.2C316.13 747.04 311.62 742.72 309 736.46C305.89 729.04 305.89 721.41 305.9 713.5C305.91 710.61 306.23 707.52 305.65 704.68C305.04 701.74 303.51 698.84 302.38 696.08C299.16 688.21 295.58 680.24 296 671.5C296.28 665.46 297.75 659.24 300.09 653.66C301.7 649.8 305.16 645.63 305.62 641.44C306.12 636.91 305.22 632.05 305.19 627.5C305.14 619.27 305.88 611.05 308.6 603.26C309.96 599.37 311.46 593.41 314.87 591C316.06 594.07 316.9 597.29 318.12 600.35C323.83 614.68 332.9 628.76 344.11 639.39C388.96 681.93 461.38 681.35 505.09 637.58C520.06 622.59 529.22 603.67 534.83 583.45C536.19 578.52 536.76 573.15 539.03 568.53C539.89 566.78 541.28 564.11 543.52 564.03C545.93 563.94 547.34 566.49 548.19 568.36C550.22 572.77 550.72 577.85 551.96 582.52C557.4 603 566.58 621.72 581.49 637.01C614.26 670.61 667.23 680.21 710.1 661.56C719.37 657.53 728.19 651.94 735.94 645.46C740.07 642 744.59 636.46 748.84 633.81ZM541.68 668.24C538.67 668.98 536.18 671.5 533.78 673.29C526.18 678.94 519.52 684.39 516.1 693.55C514.01 699.14 511.94 704.77 518.02 708.48C525.19 712.84 535.55 714.63 543.24 710.72C547.01 708.8 550.24 705.63 553.71 703.21C558.92 699.58 565.25 694.65 565.35 687.5C565.44 680.42 554.84 672.43 549.11 669.39C546.73 668.13 544.35 667.59 541.68 668.24ZM733.57 674.21C721.94 676.04 718.59 698.62 735.5 696.98C739.44 696.6 745.23 693.76 746.12 689.48C747.46 683 740.72 673.09 733.57 674.21ZM355.63 683.2C348.37 684.62 343.85 699.05 345.34 705.25C347.15 712.77 360.86 716.68 367.31 714.77C372.67 713.18 374.78 707.61 374.85 702.5C374.89 699.16 374.21 695.85 372.61 692.9C369.77 687.65 361.8 681.99 355.63 683.2ZM641.77 707.4C632.77 709.48 625.12 717.2 622.56 726.11C621.78 728.83 621.97 731.71 621.73 734.5C621.24 739.9 619.23 746.21 625.91 748.59C634.66 751.71 642.63 747.13 650.5 743.96C659.33 740.4 666.14 741.83 668.87 730.45C669.64 727.24 669.82 724.05 668.54 720.94C667.24 717.78 663.85 715.32 661.19 713.35C655.12 708.86 649.59 705.59 641.77 707.4ZM419.65 745.44C404.33 746.1 386.78 765.37 389.52 780.96C390.68 787.56 397.42 792.18 401.81 796.71C405.09 800.09 411.62 808.67 416.5 808.72C420.89 808.76 425.54 805.49 429.67 804.24C435.25 802.55 440.79 802.79 446.42 801.75C449.21 801.24 451.47 799.84 452.85 797.34C456.09 791.48 455.44 779.55 451.17 774.29C449.33 772.03 446.24 771.21 444.61 768.88C442.42 765.74 442.34 761.32 440.59 757.89C436.46 749.83 428.75 745.04 419.65 745.44ZM508.6 759.28C500.52 760.55 495.78 769.42 494.13 776.54C493.52 779.19 492.06 783.8 495.25 785.31C500.62 787.86 501.72 780.62 503.1 779.62C504.2 778.83 506.21 779.27 507.5 779.2C510.54 779.01 513.39 778.42 515.36 775.87C519.43 770.58 518.37 757.74 508.6 759.28ZM568.63 805.45C563.76 805.52 558.98 808.93 555.21 811.67C548.88 816.25 541.88 820.92 539.36 828.79C538.35 831.97 538.31 835.23 537.88 838.5C537.41 842.01 536.19 845.61 537.44 849.12C538.93 853.29 542.8 852.98 546.24 854.31C551.64 856.4 554.39 861.86 560.54 862.82C566.04 863.67 572.53 862.07 576.53 858.03C578.88 855.64 580.48 852.65 582.67 850.15C585.32 847.14 589.05 845.17 591.52 842.01C595.69 836.67 597.01 828.1 594.72 821.74C592.32 815.1 585.46 815.22 580.21 812.29C575.97 809.92 574.21 805.36 568.63 805.45ZM571.33 820.5C570.96 820.9 570.84 821.5 570.43 821.86C568.53 823.52 564.92 824.47 562.68 826.16C559.84 828.29 557.24 830.74 554.86 833.36C553.94 834.38 552.67 836.51 551.34 836.95C549.96 837.4 550.98 836.74 549.5 837C547.84 828.91 553.61 824.22 560.03 820.47C564.64 817.78 567.23 815.98 571.33 820.5Z" fill="#403a3a" fill-rule="evenodd" stroke="#403a3a" stroke-width="0.25" stroke-linejoin="round"/>
</svg>